<svg width="50" height="50" viewBox="0 0 50 50" fill="none" xmlns="http://www.w3.org/2000/svg">
<path fill-rule="evenodd" clip-rule="evenodd" d="M25.0275 23.75C27.785 23.75 30.0275 25.9925 30.0275 28.75C30.0275 31.5075 27.785 33.75 25.0275 33.75C22.27 33.75 20.0275 31.5075 20.0275 28.75C20.0275 25.9925 22.27 23.75 25.0275 23.75ZM25.0275 38.75C30.55 38.75 35.0275 34.2725 35.0275 28.75C35.0275 23.2275 30.55 18.75 25.0275 18.75C19.505 18.75 15.0275 23.2275 15.0275 28.75C15.0275 34.2725 19.505 38.75 25.0275 38.75ZM5 45H45V15H5V45ZM17.5 10H32.5V5H17.5V10ZM47.5 10V5H42.5V10H37.5V0H12.5V10H0V50H50V10H47.5Z" fill="#3DAE77"/>
</svg>
